<?xml version="1.0" encoding="utf-8"?>
<!-- Generator: Adobe Illustrator 24.1.2, SVG Export Plug-In . SVG Version: 6.00 Build 0)  -->
<svg version="1.1" id="Layer_1" xmlns:figma="http://www.figma.com/figma/ns"
	 xmlns="http://www.w3.org/2000/svg" xmlns:xlink="http://www.w3.org/1999/xlink" x="0px" y="0px" viewBox="0 0 181 24"
	 style="enable-background:new 0 0 181 24;" xml:space="preserve">
<style type="text/css">
	.st0{fill:none;stroke:#000000;stroke-width:0.1;stroke-miterlimit:10;stroke-dasharray:0.8,0.5;}
</style>
<g>
	<path class="st0" d="M15.8,6.8c-0.3-0.5-0.7-0.9-1.1-1.2c-0.4-0.4-0.9-0.6-1.5-0.8s-1.1-0.3-1.7-0.3c-1.1,0-2.1,0.2-2.8,0.6
		c-0.8,0.4-1.4,1-1.9,1.7C6.2,7.5,5.9,8.3,5.7,9.2c-0.2,0.9-0.3,1.9-0.3,2.9c0,0.9,0.1,1.9,0.3,2.8s0.6,1.7,1.1,2.4
		c0.4,0.7,1,1.3,1.8,1.7s1.7,0.6,2.8,0.6c1.5,0,2.7-0.5,3.5-1.4s1.4-2.1,1.6-3.6h4.8c-0.1,1.4-0.5,2.7-1,3.8
		c-0.5,1.1-1.2,2.1-2.1,2.9s-1.9,1.4-3,1.8c-1.2,0.4-2.4,0.6-3.8,0.6c-1.7,0-3.3-0.3-4.6-0.9c-1.4-0.6-2.5-1.4-3.5-2.5
		c-0.9-1-1.7-2.3-2.2-3.7c-0.5-1.4-0.8-2.9-0.8-4.6s0.3-3.2,0.8-4.7C1.7,6,2.4,4.8,3.3,3.7s2.1-1.9,3.5-2.5s2.9-0.9,4.6-0.9
		c1.2,0,2.4,0.2,3.5,0.5c1.1,0.4,2.1,0.9,3,1.6s1.6,1.5,2.2,2.5s0.9,2.2,1.1,3.5h-4.8C16.3,7.8,16.1,7.3,15.8,6.8z"/>
	<path class="st0" d="M24.3,11.6c0.4-1.1,1-2,1.7-2.7s1.6-1.3,2.6-1.7c1-0.4,2.2-0.6,3.5-0.6c1.3,0,2.4,0.2,3.5,0.6
		c1,0.4,1.9,1,2.7,1.7c0.7,0.7,1.3,1.6,1.7,2.7s0.6,2.2,0.6,3.5s-0.2,2.5-0.6,3.5c-0.4,1-1,1.9-1.7,2.7c-0.7,0.7-1.6,1.3-2.7,1.7
		c-1,0.4-2.2,0.6-3.5,0.6s-2.4-0.2-3.5-0.6c-1-0.4-1.9-1-2.6-1.7s-1.3-1.6-1.7-2.7c-0.4-1-0.6-2.2-0.6-3.5
		C23.7,13.8,23.9,12.7,24.3,11.6z M28.4,17c0.1,0.6,0.3,1.2,0.6,1.7c0.3,0.5,0.7,0.9,1.2,1.2c0.5,0.3,1.1,0.4,1.9,0.4
		c0.8,0,1.4-0.1,1.9-0.4s0.9-0.7,1.2-1.2s0.5-1,0.6-1.7c0.1-0.6,0.2-1.3,0.2-1.9c0-0.6-0.1-1.3-0.2-1.9c-0.1-0.6-0.3-1.2-0.6-1.7
		s-0.7-0.9-1.2-1.2s-1.1-0.5-1.9-0.5c-0.8,0-1.4,0.2-1.9,0.5S29.3,11,29,11.5c-0.3,0.5-0.5,1-0.6,1.7c-0.1,0.6-0.2,1.3-0.2,1.9
		C28.2,15.8,28.2,16.4,28.4,17z"/>
	<path class="st0" d="M43.5,11.6c0.4-1.1,1-2,1.7-2.7s1.6-1.3,2.6-1.7c1-0.4,2.2-0.6,3.5-0.6s2.4,0.2,3.5,0.6c1,0.4,1.9,1,2.7,1.7
		c0.7,0.7,1.3,1.6,1.7,2.7s0.6,2.2,0.6,3.5s-0.2,2.5-0.6,3.5c-0.4,1-1,1.9-1.7,2.7c-0.7,0.7-1.6,1.3-2.7,1.7c-1,0.4-2.2,0.6-3.5,0.6
		s-2.4-0.2-3.5-0.6c-1-0.4-1.9-1-2.6-1.7c-0.7-0.7-1.3-1.6-1.7-2.7c-0.4-1-0.6-2.2-0.6-3.5S43.1,12.7,43.5,11.6z M47.6,17
		c0.1,0.6,0.3,1.2,0.6,1.7s0.7,0.9,1.2,1.2c0.5,0.3,1.1,0.4,1.9,0.4c0.8,0,1.4-0.1,1.9-0.4s0.9-0.7,1.2-1.2s0.5-1,0.6-1.7
		c0.1-0.6,0.2-1.3,0.2-1.9c0-0.6-0.1-1.3-0.2-1.9c-0.1-0.6-0.3-1.2-0.6-1.7s-0.7-0.9-1.2-1.2s-1.1-0.5-1.9-0.5
		c-0.8,0-1.4,0.2-1.9,0.5s-0.9,0.7-1.2,1.2s-0.5,1-0.6,1.7c-0.1,0.6-0.2,1.3-0.2,1.9C47.4,15.8,47.5,16.4,47.6,17z"/>
	<path class="st0" d="M67.5,0.8v12L73.2,7h5.3l-6.1,6l6.8,10.3h-5.4L69.3,16l-1.7,1.7v5.6h-4.5V0.8H67.5z"/>
	<path class="st0" d="M100,0.8c1.4,0,2.6,0.2,3.6,0.6s1.8,0.9,2.4,1.6s1.1,1.4,1.4,2.3s0.4,1.8,0.4,2.7s-0.1,1.8-0.4,2.7
		s-0.7,1.6-1.4,2.3c-0.6,0.7-1.4,1.2-2.4,1.6c-1,0.4-2.2,0.6-3.6,0.6h-5.2v8.1h-4.9V0.8H100z M98.7,11.4c0.6,0,1.1,0,1.6-0.1
		s1-0.2,1.4-0.5c0.4-0.2,0.7-0.6,1-1c0.2-0.4,0.4-1,0.4-1.7s-0.1-1.3-0.4-1.7c-0.2-0.4-0.6-0.8-1-1s-0.9-0.4-1.4-0.5
		s-1.1-0.1-1.6-0.1h-3.8v6.7h3.8V11.4z"/>
	<path class="st0" d="M115,0.8v22.5h-4.5V0.8H115z"/>
	<path class="st0" d="M118.4,12c0.1-1,0.3-1.9,0.8-2.6c0.5-0.7,1-1.2,1.8-1.7c0.7-0.4,1.5-0.7,2.4-0.9c0.9-0.2,1.8-0.3,2.7-0.3
		c0.8,0,1.6,0.1,2.5,0.2c0.8,0.1,1.6,0.3,2.3,0.7c0.7,0.3,1.3,0.8,1.7,1.4s0.7,1.4,0.7,2.4v8.5c0,0.7,0,1.4,0.1,2.1s0.2,1.2,0.4,1.5
		h-4.5c-0.1-0.3-0.2-0.5-0.2-0.8c-0.1-0.3-0.1-0.5-0.1-0.8c-0.7,0.7-1.6,1.2-2.5,1.5c-1,0.3-1.9,0.4-3,0.4c-0.8,0-1.5-0.1-2.2-0.3
		s-1.3-0.5-1.8-0.9s-0.9-0.9-1.2-1.5c-0.3-0.6-0.4-1.3-0.4-2.2c0-0.9,0.2-1.7,0.5-2.3c0.3-0.6,0.7-1.1,1.3-1.4
		c0.5-0.4,1.1-0.6,1.8-0.8c0.7-0.2,1.3-0.3,2-0.4c0.7-0.1,1.3-0.2,2-0.3c0.6-0.1,1.2-0.2,1.7-0.3s0.9-0.3,1.2-0.6
		c0.3-0.2,0.4-0.6,0.4-1.1s-0.1-0.9-0.2-1.1c-0.2-0.3-0.4-0.5-0.6-0.7c-0.3-0.2-0.6-0.3-0.9-0.3c-0.3-0.1-0.7-0.1-1.1-0.1
		c-0.9,0-1.6,0.2-2.1,0.6c-0.5,0.4-0.8,1-0.9,1.9h-4.6V12z M128.7,15.3c-0.2,0.2-0.4,0.3-0.7,0.4c-0.3,0.1-0.6,0.2-0.9,0.2
		c-0.3,0.1-0.7,0.1-1,0.2c-0.4,0-0.7,0.1-1.1,0.2c-0.3,0.1-0.7,0.1-1,0.3c-0.3,0.1-0.6,0.2-0.8,0.4c-0.2,0.2-0.4,0.4-0.6,0.7
		c-0.1,0.3-0.2,0.6-0.2,1s0.1,0.7,0.2,1s0.3,0.5,0.6,0.6c0.3,0.2,0.5,0.3,0.9,0.3c0.3,0.1,0.7,0.1,1,0.1c0.9,0,1.6-0.1,2-0.4
		c0.5-0.3,0.8-0.6,1.1-1.1c0.2-0.4,0.4-0.8,0.4-1.2c0.1-0.4,0.1-0.8,0.1-1V15.3z"/>
	<path class="st0" d="M140.8,7v2.3h0.1c0.6-0.9,1.3-1.6,2.2-2.1c0.9-0.4,1.8-0.6,2.8-0.6c1.2,0,2.2,0.2,2.9,0.5
		c0.8,0.3,1.4,0.8,1.8,1.4s0.8,1.3,0.9,2.1c0.2,0.8,0.3,1.7,0.3,2.8v10h-4.5v-9.2c0-1.3-0.2-2.3-0.6-3s-1.2-1-2.2-1
		c-1.2,0-2.1,0.4-2.6,1.1c-0.5,0.7-0.8,1.9-0.8,3.6v8.5h-4.5V7H140.8z"/>
	<path class="st0" d="M164.2,7v3h-3.3v8c0,0.8,0.1,1.3,0.4,1.5c0.3,0.3,0.8,0.4,1.5,0.4c0.3,0,0.5,0,0.7,0s0.5-0.1,0.7-0.1v3.5
		c-0.4,0.1-0.8,0.1-1.3,0.1s-0.9,0-1.4,0c-0.7,0-1.3,0-2-0.1c-0.6-0.1-1.2-0.3-1.6-0.6c-0.5-0.3-0.8-0.7-1.1-1.2s-0.4-1.2-0.4-2V10
		h-2.7V7h2.7V2.1h4.5V7H164.2z"/>
	<path class="st0" d="M170.1,19.2c0.2,0.3,0.5,0.6,0.8,0.8c0.3,0.2,0.7,0.4,1.1,0.5c0.4,0.1,0.8,0.2,1.3,0.2c0.3,0,0.6,0,1-0.1
		c0.3-0.1,0.7-0.2,0.9-0.3c0.3-0.2,0.5-0.4,0.7-0.6c0.2-0.3,0.3-0.6,0.3-1c0-0.7-0.4-1.2-1.3-1.5c-0.9-0.3-2.1-0.7-3.7-1
		c-0.7-0.1-1.3-0.3-1.9-0.5c-0.6-0.2-1.2-0.5-1.7-0.8s-0.9-0.7-1.2-1.2s-0.4-1.1-0.4-1.8c0-1,0.2-1.9,0.6-2.6
		c0.4-0.7,0.9-1.2,1.6-1.6c0.7-0.4,1.4-0.7,2.3-0.8c0.8-0.2,1.7-0.2,2.6-0.2s1.7,0.1,2.6,0.3c0.8,0.2,1.6,0.5,2.2,0.8
		c0.6,0.4,1.2,0.9,1.6,1.6s0.7,1.5,0.8,2.5h-4.2c-0.1-0.9-0.4-1.4-1-1.7s-1.3-0.5-2.1-0.5c-0.3,0-0.5,0-0.8,0s-0.6,0.1-0.8,0.2
		c-0.2,0.1-0.4,0.3-0.6,0.5c-0.2,0.2-0.3,0.5-0.3,0.8c0,0.4,0.1,0.7,0.4,1c0.3,0.3,0.7,0.5,1.1,0.6c0.5,0.2,1,0.3,1.6,0.4
		c0.6,0.1,1.2,0.3,1.9,0.4c0.6,0.1,1.3,0.3,1.9,0.5c0.6,0.2,1.2,0.5,1.7,0.8s0.9,0.8,1.2,1.3c0.3,0.5,0.4,1.1,0.4,1.9
		c0,1.1-0.2,2-0.6,2.7c-0.4,0.7-1,1.3-1.7,1.7c-0.7,0.4-1.5,0.7-2.4,0.9c-0.9,0.2-1.8,0.3-2.7,0.3s-1.9-0.1-2.8-0.3
		c-0.9-0.2-1.7-0.5-2.4-0.9s-1.3-1-1.7-1.7c-0.5-0.7-0.7-1.6-0.7-2.7h4.2C169.8,18.4,169.9,18.9,170.1,19.2z"/>
</g>
</svg>
